<svg width="183" height="42" viewBox="0 0 183 42" fill="none" xmlns="http://www.w3.org/2000/svg">
<path d="M72.2188 38C70.6719 38 69.2188 37.7109 67.8594 37.1328C66.5 36.5391 65.3047 35.7344 64.2734 34.7188C63.2578 33.6875 62.4531 32.4922 61.8594 31.1328C61.2812 29.7734 60.9922 28.3203 60.9922 26.7734V19.3203H57.875V12.9453H60.9922V2.91406H67.3672V12.9453H77.0703V19.3203H67.3672V26.7734C67.3672 27.4453 67.4922 28.0781 67.7422 28.6719C67.9922 29.25 68.3359 29.7578 68.7734 30.1953C69.2109 30.6328 69.7266 30.9844 70.3203 31.25C70.9141 31.5 71.5469 31.625 72.2188 31.625H77.0703V38H72.2188ZM87.0781 38H80.6797V2.91406H87.0781V14C87.8438 13.4219 88.6328 13.0156 89.4453 12.7812C90.2578 12.5312 91.0859 12.4062 91.9297 12.4062C93.4766 12.4062 94.9297 12.7031 96.2891 13.2969C97.6484 13.875 98.8281 14.6797 99.8281 15.7109C100.844 16.7266 101.641 17.9219 102.219 19.2969C102.812 20.6562 103.109 22.1094 103.109 23.6562V38H96.6641V23.6562H96.7109C96.7109 23 96.5859 22.3828 96.3359 21.8047C96.0859 21.2109 95.7422 20.6953 95.3047 20.2578C94.8672 19.8203 94.3594 19.4766 93.7812 19.2266C93.2031 18.9766 92.5859 18.8516 91.9297 18.8516C91.2578 18.8516 90.625 18.9766 90.0312 19.2266C89.4375 19.4766 88.9219 19.8203 88.4844 20.2578C88.0469 20.6953 87.7031 21.2109 87.4531 21.8047C87.2031 22.3828 87.0781 23 87.0781 23.6562V38ZM114.125 38H107.68V2.91406H114.125V38ZM126.57 6.07812C126.57 6.67187 126.453 7.22656 126.219 7.74219C126 8.25781 125.695 8.71094 125.305 9.10156C124.914 9.47656 124.453 9.78125 123.922 10.0156C123.406 10.2344 122.852 10.3438 122.258 10.3438C121.664 10.3438 121.102 10.2344 120.57 10.0156C120.055 9.78125 119.602 9.47656 119.211 9.10156C118.836 8.71094 118.531 8.25781 118.297 7.74219C118.078 7.22656 117.969 6.67187 117.969 6.07812C117.969 5.5 118.078 4.95312 118.297 4.4375C118.531 3.90625 118.836 3.45312 119.211 3.07812C119.602 2.6875 120.055 2.38281 120.57 2.16406C121.102 1.92969 121.664 1.8125 122.258 1.8125C122.852 1.8125 123.406 1.92969 123.922 2.16406C124.453 2.38281 124.914 2.6875 125.305 3.07812C125.695 3.45312 126 3.90625 126.219 4.4375C126.453 4.95312 126.57 5.5 126.57 6.07812ZM125.469 38H119.023V12.8984H125.469V38ZM136.766 38H130.367V12.8984H131.914L134.023 15.3359C135.055 14.3984 136.219 13.6797 137.516 13.1797C138.828 12.6641 140.195 12.4062 141.617 12.4062C143.148 12.4062 144.594 12.7031 145.953 13.2969C147.312 13.875 148.5 14.6797 149.516 15.7109C150.531 16.7266 151.328 17.9219 151.906 19.2969C152.5 20.6562 152.797 22.1094 152.797 23.6562V38H146.398V23.6562C146.398 23 146.273 22.3828 146.023 21.8047C145.773 21.2109 145.43 20.6953 144.992 20.2578C144.555 19.8203 144.047 19.4766 143.469 19.2266C142.891 18.9766 142.273 18.8516 141.617 18.8516C140.945 18.8516 140.312 18.9766 139.719 19.2266C139.125 19.4766 138.609 19.8203 138.172 20.2578C137.734 20.6953 137.391 21.2109 137.141 21.8047C136.891 22.3828 136.766 23 136.766 23.6562V38ZM163.812 38H157.367V2.91406H163.812V25.0391L173.352 12.9453H180.711L172.391 23.3984L180.711 38H173.352L168.266 28.8828L163.812 34.7891V38Z" fill="#313131"/>
<rect width="42" height="42" rx="9" fill="#D94F46"/>
<rect x="32.8739" y="21.8637" width="14.3268" height="4" transform="rotate(165 32.8739 21.8637)" fill="white"/>
<circle cx="33" cy="19" r="5" fill="white"/>
<circle cx="17" cy="24" r="5" fill="white"/>
<path fill-rule="evenodd" clip-rule="evenodd" d="M42 30.8285V25.1716L35.769 18.9406L32.9405 21.769L42 30.8285Z" fill="white"/>
</svg>
